# xmcd CD database file
#
# Track frame offsets:
#	150
#	20300
#	34272
#	45815
#	60912
#	71110
#	79105
#	91037
#	107160
#	120197
#	131725
#	150222
#	164462
#
# Disc length: 2353 seconds
#
# Revision: 0
# Processed by: cddbd v1.5.2PL0 Copyright (c) Steve Scherf et al.
# Submitted via: jetAudio 7
#
DISCID=8f092f0d
DTITLE=Buskin' Chris - Times and Changes
DYEAR=1900
DGENRE=Blues
TTITLE0=Home is where the heart is
TTITLE1=Blues in the Subway
TTITLE2=Forget my Name
TTITLE3=Sitting in moonlight
TTITLE4=Lets work together
TTITLE5=Coming home
TTITLE6=San Sabastian
TTITLE7=My time has come
TTITLE8=This one is for you
TTITLE9=Sweet home Chicago
TTITLE10=Tülin
TTITLE11=Godess of love
TTITLE12=That's why I sing the Blues
EXTD=
EXTT0=
EXTT1=
EXTT2=
EXTT3=
EXTT4=
EXTT5=
EXTT6=
EXTT7=
EXTT8=
EXTT9=
EXTT10=
EXTT11=
EXTT12=
PLAYORDER=
